<?xml version="1.0" standalone="no"?>
<!DOCTYPE svg PUBLIC "-//W3C//DTD SVG 20010904//EN"
 "http://www.w3.org/TR/2001/REC-SVG-20010904/DTD/svg10.dtd">
<svg version="1.0" xmlns="http://www.w3.org/2000/svg"
 width="1280.000000pt" height="1280.000000pt" viewBox="0 0 1280.000000 1280.000000"
 preserveAspectRatio="xMidYMid meet">
<metadata>
Created by potrace 1.14, written by Peter Selinger 2001-2017
</metadata>
<g transform="translate(0.000000,1280.000000) scale(0.100000,-0.100000)"
fill="#000000" stroke="none">
<path d="M5960 10315 c-239 -239 -438 -435 -442 -435 -5 0 -8 77 -8 170 l0
170 70 0 70 0 0 245 0 245 -625 0 c-344 0 -628 0 -632 0 -5 0 -9 -110 -11
-245 l-2 -245 70 0 70 0 0 -672 0 -673 -1045 -1045 -1045 -1045 50 -50 50 -50
248 248 c136 136 250 247 255 247 4 0 6 -1083 5 -2407 l-3 -2408 -462 -3 -463
-2 0 -70 0 -70 239 0 c240 0 267 -4 241 -35 -6 -7 -10 -33 -8 -57 l3 -43 209
-3 c144 -2 213 1 222 9 15 12 19 5 26 -36 3 -20 11 -20 3358 -20 l3355 0 3 22
c3 23 4 23 230 25 l227 3 3 43 c2 24 -2 50 -8 57 -26 31 1 35 241 35 l239 0 0
70 0 70 -462 2 -463 3 -3 2408 c-1 1324 1 2407 5 2407 5 0 119 -111 255 -247
l248 -248 50 50 50 50 -1982 1982 c-1091 1091 -1985 1983 -1988 1983 -3 0
-201 -196 -440 -435z"/>
</g>
</svg>
